<?xml version="1.0" encoding="UTF-8"?>
<svg id="b" data-name="Layer 2" xmlns="http://www.w3.org/2000/svg" viewBox="0 0 82.157 82.157">
  <g id="c" data-name="Layer 1">
    <rect width="82.157" height="82.157" fill="none"/>
    <g>
      <path d="M39.05,75.5h0c-.275,1.617,.887,2.239,2.427,2.606l7.256,1.475,7.256,1.475c1.594,.269,2.93,.139,3.274-1.557l.711-3.499c-.128,.035-.257,.065-.387,.092-.726,.147-1.473,.162-2.262,.084-.673-.067-1.318-.206-1.936-.422-.47-.164-.924-.373-1.361-.628l-.29,.095c-2.088,.678-2.791,.906-5.614,.917-2.746,.011-6.096-.331-8.955-.623l-.027-.003-.091-.009h0Zm28.626-30.873h0c-3.822-3.755-12.429-3.78-17.528-3.779,.522-1.262,1.105-2.385,1.647-3.429,2.062-3.97,3.589-6.911,.143-12.131,1.177-1.132,2.69-1.838,4.319-2.01,.059-2.305,.585-6.126,1.699-8.098,2.256-3.993,2.619-4.077,3.057-5.934,.215-.913,.449-2.255,.935-4.701,.074-.372,.154-.771,.24-1.196l-.266-.054-.328-.066,.246-1.209c.024-.118,.061-.229,.109-.331,.222-.477,.678-.768,1.126-.677l2.832,.575,1.308,.266,1.286,.261,.239,.049c.448,.091,.754,.537,.773,1.063,.004,.113-.005,.23-.029,.347l-.246,1.209-.328-.067-.266-.054c-.087,.426-.168,.824-.246,1.195-.507,2.442-.815,3.769-.974,4.694-.321,1.881-.02,2.099,.498,6.656,.256,2.25-.751,5.973-1.596,8.119,2.589,1.436,4.153,4.333,3.728,7.587l-2.381,11.715Z" fill="#33540c" fill-rule="evenodd"/>
      <path d="M26.411,53.376h0v-.459h-1.925v20.304h1.925v-19.845h0Zm-4.073-1.587h0v-.765H12.032v23.999h10.306v-23.234Z" fill="#33540c" fill-rule="evenodd"/>
      <path d="M47.517,42.743c-.136-.002-.273-.003-.411-.003,.992-3.096,2.605-5.201,3.521-7.557,.081-.209,.157-.421,.227-.635,.353-1.09,.54-2.254,.438-3.607-.143-1.897-3.008-8.056-5.82-6.198-.142,.094-.25,.209-.332,.342-.487,.79-.058,2.218-.26,3.63-.031,.219-.078,.437-.145,.652-.407,1.302-.698,1.754-.757,3.109-.542,.223-.698,.401-.698,1.076-1.083,.619-1.812,2.849-4.086,4.923-4.818,4.395-4.295,14.242-10.64,14.87v19.418h6.845c4.669,.281,12.317,1.56,16.47,.67l2.113-.676,.378-.121c2.325,1.696,7.595,1.935,8.191-1.674,.09-.546,.009-1.038-.15-1.488-.274-.772-.778-1.42-1.046-1.999,2.455-.109,5.242-2.163,4.463-4.935-.012-.042-.025-.085-.038-.128-.23-.724-.927-1.386-1.455-1.913,3.101-1.41,3.559-3.862,2.149-6.167-.442-.721-1.066-1.428-1.85-2.084,1.694-.941,2.619-2.257,1.933-4.325-1.796-5.417-14.258-5.102-19.041-5.179h0Z" fill="#89cb43" fill-rule="evenodd"/>
    </g>
  </g>
</svg>