<?xml version="1.0"?>
<svg width="1000" height="1000" xmlns="http://www.w3.org/2000/svg" xmlns:svg="http://www.w3.org/2000/svg" xmlns:xlink="http://www.w3.org/1999/xlink" version="1.1" xml:space="preserve">
 <defs>
  <symbol enable-background="new 0 0 1000 1000" id="svg_1" version="1.1" viewBox="0 0 1000 1000" x="0px" xml:space="preserve" xmlns="http://www.w3.org/2000/svg" xmlns:xlink="http://www.w3.org/1999/xlink" y="0px">
   <metadata>Svg Vector Icons : http://www.onlinewebfonts.com/icon</metadata>
   <g>
    <g transform="translate(0.000000,512.000000) scale(0.100000,-0.100000)">
     <path d="m4493.5,4345.9c-7.7,-371.5 -21.1,-1183.5 -28.7,-1805.9c-13.4,-1106.9 -15.3,-1131.8 -55.5,-1210.3c-67,-128.3 -226,-302.6 -559.2,-609c-325.6,-300.7 -543.9,-536.2 -626.2,-676c-109.2,-183.9 -107.2,-105.3 -44,-1675.7c107.1,-2671.5 109.1,-2702.2 197.1,-2803.6c160.9,-181.9 589.8,-289.2 1359.7,-335.1c766,-46 1547.4,67 1798.2,258.5c134.1,103.4 147.5,134.1 168.5,377.3c32.6,390.7 151.3,3213.5 158.9,3763.1c3.8,247.1 3.8,249 -59.4,363.9c-90,168.5 -298.8,400.2 -655,727.7c-331.3,304.5 -492.2,480.7 -559.2,609c-42.1,78.5 -42.1,101.5 -55.5,1057.1c-7.7,538.1 -19.2,1350.1 -26.8,1805.9l-13.4,827.3l-494.1,0l-493.9,0l-11.5,-674.2zm-36.4,-3676.9c-247.1,-319.8 -448.1,-655 -519,-869.4c-38.3,-118.7 -36.4,-21.1 -21.1,-1357.8c9.6,-729.6 7.7,-1246.7 -7.7,-1560.8c-26.8,-591.8 -59.4,-999.7 -80.4,-1022.6c-11.5,-11.5 -17.2,-9.6 -17.2,7.7c0,13.4 -21.1,203 -47.9,419.4c-63.2,534.3 -101.5,1041.8 -124.5,1658.4c-23,645.4 -24.9,1530.1 0,1692.9c32.6,235.5 208.7,530.5 469.2,794.7c122.7,122.6 442.5,394.5 465.4,394.5c3.9,0 -47.8,-70.8 -116.8,-157z"/>
    </g>
   </g>
  </symbol>
 </defs>
 <g class="layer">
  <title>Layer 1</title>
  <use fill="#231123" id="svg_4" transform="matrix(0.993422 0 0 0.993422 -213.293 -45.8695)" x="230.6" xlink:href="#svg_1" y="45.72"/>
  <path d="m677.51,722.98l-26.38,-26.34c-3.82,-3.82 -8.37,-5.73 -13.66,-5.73c-5.29,0 -9.84,1.91 -13.66,5.73l-154.94,154.94l-63,-63c-3.82,-3.82 -8.37,-5.73 -13.66,-5.73c-5.29,0 -9.84,1.91 -13.66,5.73l-26.34,26.34c-3.82,3.82 -5.73,8.37 -5.73,13.66c0,5.29 1.91,9.84 5.73,13.66l102.99,103.03c3.82,3.82 8.37,5.73 13.66,5.73c5.29,0 9.84,-1.91 13.66,-5.73l194.97,-194.97c3.82,-3.82 5.73,-8.37 5.73,-13.66c0,-5.29 -1.91,-9.84 -5.73,-13.66l0,0z" fill="#7fff00" id="svg_5"/>
 </g>
</svg>