<?xml version="1.0" encoding="UTF-8"?>
<svg id="b" data-name="Layer 2" xmlns="http://www.w3.org/2000/svg" viewBox="0 0 325.651 322.711">
  <g id="c" data-name="Layer 1">
    <g>
      <path d="M0,322.493v-76.263H12.202v25.058l-.218,4.903h.218c.98-3.377,4.249-5.12,8.498-5.12h4.031c6.21,0,10.35,4.031,10.35,10.35v30.832c0,6.21-4.14,10.459-10.35,10.459h-4.031c-4.249,0-7.518-1.744-8.498-5.121h-.218v4.903H0Zm22.879-11.657v-28c0-.218-.218-.435-.435-.435H12.638c-.218,0-.436,.217-.436,.435v28c0,.326,.218,.435,.436,.435h9.805c.218,0,.435-.109,.435-.435Z" fill="#33540c"/>
      <path d="M69.51,322.711h-14.382c-6.21,0-10.349-4.249-10.349-10.459v-30.832c0-6.319,4.139-10.35,10.349-10.35h14.382c6.21,0,10.35,4.14,10.35,10.35v30.832c0,6.21-4.14,10.459-10.35,10.459Zm-2.288-40.31h-9.805c-.218,0-.435,.217-.435,.435v28c0,.326,.217,.435,.435,.435h9.805c.218,0,.435-.109,.435-.435v-28c0-.218-.217-.435-.435-.435Z" fill="#33540c"/>
      <path d="M114.396,322.711h-14.38c-6.21,0-10.35-4.249-10.35-10.459v-30.832c0-6.319,4.14-10.35,10.35-10.35h14.38c6.21,0,10.35,4.14,10.35,10.35v30.832c0,6.21-4.14,10.459-10.35,10.459Zm-2.287-40.31h-9.805c-.218,0-.437,.217-.437,.435v28c0,.326,.218,.435,.437,.435h9.805c.217,0,.435-.109,.435-.435v-28c0-.218-.218-.435-.435-.435Z" fill="#33540c"/>
      <path d="M159.284,322.711h-14.273c-6.319,0-10.459-4.14-10.459-10.459v-6.973h12.203v6.101c0,.326,.217,.435,.435,.435h9.805c.218,0,.435-.109,.435-.435v-6.101c0-.327-.217-.546-.544-.763l-14.708-6.973c-5.12-2.397-7.626-5.556-7.626-10.133v-5.992c0-6.21,4.14-10.35,10.459-10.35h14.273c6.21,0,10.35,4.031,10.35,10.35v6.21h-12.203v-5.338c0-.218-.217-.437-.435-.437h-9.805c-.218,0-.435,.218-.435,.437v5.12c0,.437,.217,.654,.544,.763l14.054,6.646c5.556,2.614,8.28,5.773,8.28,10.241v7.191c0,6.319-4.14,10.459-10.35,10.459Z" fill="#33540c"/>
      <path d="M201.992,322.493v-4.031h-.217c-.872,2.833-4.14,4.249-7.3,4.249h-4.684c-6.537,0-10.896-4.14-10.896-10.786v-10.459c0-7.299,4.032-10.677,10.677-10.677h4.903c3.923,0,6.428,1.309,7.3,4.141h.217l-.217-4.467v-7.626c0-.218-.218-.435-.437-.435h-18.739v-11.114h20.699c6.756,0,10.677,3.923,10.677,10.677v40.528h-11.984Zm-.654-22.334h-9.805c-.217,0-.435,.109-.435,.435v10.786c0,.326,.218,.435,.435,.435h9.805c.218,0,.437-.109,.437-.435v-10.786c0-.326-.218-.435-.437-.435Z" fill="#33540c"/>
      <path d="M223.784,322.493v-76.263h12.201v25.058l-.217,4.903h.217c.981-3.377,4.249-5.12,8.498-5.12h4.031c6.21,0,10.35,4.031,10.35,10.35v30.832c0,6.21-4.14,10.459-10.35,10.459h-4.031c-4.249,0-7.517-1.744-8.498-5.121h-.217v4.903h-11.984Zm22.879-11.657v-28c0-.218-.218-.435-.435-.435h-9.805c-.218,0-.437,.217-.437,.435v28c0,.326,.218,.435,.437,.435h9.805c.217,0,.435-.109,.435-.435Z" fill="#33540c"/>
      <path d="M268.563,322.493v-76.263h12.201v76.263h-12.201Z" fill="#33540c"/>
      <path d="M302.772,302.338v8.498c0,.326,.218,.435,.437,.435h18.848v11.222h-21.136c-6.21,0-10.35-4.249-10.35-10.459v-30.614c0-6.21,4.14-10.35,10.35-10.35h14.38c6.21,0,10.35,4.249,10.35,10.131v21.136h-22.879Zm10.677-20.046c0-.218-.218-.437-.435-.437h-9.805c-.218,0-.437,.218-.437,.437v10.785h10.677v-10.785Z" fill="#33540c"/>
    </g>
    <g>
      <path d="M129.969,228.835h0c-.844,4.966,2.725,6.878,7.453,8.003l22.287,4.529,22.287,4.529c4.895,.826,8.998,.426,10.056-4.782l2.184-10.747c-.393,.106-.789,.2-1.189,.282-2.23,.452-4.524,.497-6.948,.257-2.067-.205-4.049-.632-5.947-1.297-1.443-.505-2.837-1.146-4.181-1.93l-.891,.29c-6.414,2.082-8.573,2.783-17.243,2.818-8.435,.034-18.724-1.017-27.503-1.914l-.082-.01-.281-.029h0Zm87.921-94.821h0c-11.738-11.532-38.173-11.609-53.836-11.608,1.602-3.876,3.394-7.324,5.059-10.53,6.334-12.192,11.024-21.227,.441-37.259,3.614-3.476,8.263-5.645,13.264-6.174,.182-7.079,1.798-18.815,5.219-24.871,6.93-12.264,8.043-12.521,9.388-18.224,.662-2.805,1.379-6.926,2.873-14.44,.227-1.144,.473-2.367,.738-3.674l-.816-.166-1.006-.204,.755-3.714c.073-.362,.187-.702,.334-1.017,.683-1.465,2.083-2.36,3.46-2.081l8.698,1.767,4.016,.816,3.949,.803,.734,.149c1.376,.28,2.316,1.65,2.373,3.266,.012,.347-.016,.705-.089,1.066l-.755,3.715-1.006-.205-.817-.166c-.266,1.308-.517,2.529-.754,3.671-1.557,7.501-2.505,11.576-2.99,14.416-.987,5.776-.063,6.447,1.531,20.443,.787,6.911-2.307,18.346-4.902,24.936,7.953,4.41,12.754,13.307,11.451,23.304l-7.312,35.982Z" fill="#33540c" fill-rule="evenodd"/>
      <path d="M91.149,160.886h0v-1.41h-5.912v62.362h5.912v-60.952h0Zm-12.509-4.874h0v-2.351h-31.654v73.71h31.654v-71.359Z" fill="#33540c" fill-rule="evenodd"/>
      <path d="M155.974,128.227c-.418-.007-.839-.01-1.263-.01,3.048-9.51,8.001-15.975,10.813-23.21,.25-.643,.483-1.292,.696-1.95,1.085-3.348,1.659-6.923,1.346-11.079-.439-5.828-9.239-24.744-17.874-19.037-.435,.288-.768,.641-1.02,1.05-1.497,2.425-.179,6.814-.8,11.149-.096,.671-.238,1.341-.445,2.003-1.249,3.999-2.145,5.389-2.326,9.549-1.666,.686-2.142,1.23-2.142,3.305-3.326,1.901-5.565,8.749-12.548,15.12-14.797,13.498-13.191,43.743-32.679,45.671v59.64h21.024c14.341,.862,37.831,4.791,50.587,2.057l6.49-2.077,1.162-.372c7.139,5.21,23.328,5.944,25.159-5.142,.277-1.676,.028-3.189-.462-4.571-.84-2.37-2.389-4.36-3.211-6.141,7.541-.335,16.099-6.642,13.707-15.156-.037-.13-.076-.261-.118-.392-.707-2.224-2.847-4.255-4.469-5.876,9.526-4.33,10.932-11.862,6.6-18.941-1.356-2.216-3.275-4.387-5.682-6.402,5.203-2.891,8.044-6.931,5.937-13.283-5.516-16.638-43.792-15.671-58.481-15.906h0Z" fill="#89cb43" fill-rule="evenodd"/>
    </g>
  </g>
</svg>