<?xml version="1.0" encoding="UTF-8"?>
<svg id="b" data-name="Layer 2" xmlns="http://www.w3.org/2000/svg" viewBox="0 0 461.194 155.808">
  <g id="c" data-name="Layer 1">
    <g>
      <path d="M135.544,142.974V66.71h12.202v25.058l-.218,4.903h.218c.98-3.377,4.249-5.12,8.498-5.12h4.031c6.21,0,10.35,4.031,10.35,10.35v30.832c0,6.21-4.14,10.459-10.35,10.459h-4.031c-4.249,0-7.518-1.744-8.498-5.121h-.218v4.903h-11.984Zm22.879-11.657v-28c0-.218-.218-.435-.435-.435h-9.805c-.218,0-.436,.217-.436,.435v28c0,.326,.218,.435,.436,.435h9.805c.218,0,.435-.109,.435-.435Z" fill="#33540c"/>
      <path d="M205.053,143.192h-14.382c-6.21,0-10.349-4.249-10.349-10.459v-30.832c0-6.319,4.139-10.35,10.349-10.35h14.382c6.21,0,10.35,4.14,10.35,10.35v30.832c0,6.21-4.14,10.459-10.35,10.459Zm-2.288-40.31h-9.805c-.218,0-.435,.217-.435,.435v28c0,.326,.217,.435,.435,.435h9.805c.218,0,.435-.109,.435-.435v-28c0-.218-.217-.435-.435-.435Z" fill="#33540c"/>
      <path d="M249.94,143.192h-14.38c-6.21,0-10.35-4.249-10.35-10.459v-30.832c0-6.319,4.14-10.35,10.35-10.35h14.38c6.21,0,10.35,4.14,10.35,10.35v30.832c0,6.21-4.14,10.459-10.35,10.459Zm-2.287-40.31h-9.805c-.218,0-.437,.217-.437,.435v28c0,.326,.218,.435,.437,.435h9.805c.217,0,.435-.109,.435-.435v-28c0-.218-.218-.435-.435-.435Z" fill="#33540c"/>
      <path d="M294.828,143.192h-14.273c-6.319,0-10.459-4.14-10.459-10.459v-6.973h12.203v6.101c0,.326,.217,.435,.435,.435h9.805c.218,0,.435-.109,.435-.435v-6.101c0-.327-.217-.546-.544-.763l-14.708-6.973c-5.12-2.397-7.626-5.556-7.626-10.133v-5.992c0-6.21,4.14-10.35,10.459-10.35h14.273c6.21,0,10.35,4.031,10.35,10.35v6.21h-12.203v-5.338c0-.218-.217-.437-.435-.437h-9.805c-.218,0-.435,.218-.435,.437v5.12c0,.437,.217,.654,.544,.763l14.054,6.646c5.556,2.614,8.28,5.773,8.28,10.241v7.191c0,6.319-4.14,10.459-10.35,10.459Z" fill="#33540c"/>
      <path d="M337.535,142.974v-4.031h-.217c-.872,2.833-4.14,4.249-7.3,4.249h-4.684c-6.537,0-10.896-4.14-10.896-10.786v-10.459c0-7.299,4.032-10.677,10.677-10.677h4.903c3.923,0,6.428,1.309,7.3,4.141h.217l-.217-4.467v-7.626c0-.218-.218-.435-.437-.435h-18.739v-11.114h20.699c6.756,0,10.677,3.923,10.677,10.677v40.528h-11.984Zm-.654-22.334h-9.805c-.217,0-.435,.109-.435,.435v10.786c0,.326,.218,.435,.435,.435h9.805c.218,0,.437-.109,.437-.435v-10.786c0-.326-.218-.435-.437-.435Z" fill="#33540c"/>
      <path d="M359.328,142.974V66.71h12.201v25.058l-.217,4.903h.217c.981-3.377,4.249-5.12,8.498-5.12h4.031c6.21,0,10.35,4.031,10.35,10.35v30.832c0,6.21-4.14,10.459-10.35,10.459h-4.031c-4.249,0-7.517-1.744-8.498-5.121h-.217v4.903h-11.984Zm22.879-11.657v-28c0-.218-.218-.435-.435-.435h-9.805c-.218,0-.437,.217-.437,.435v28c0,.326,.218,.435,.437,.435h9.805c.217,0,.435-.109,.435-.435Z" fill="#33540c"/>
      <path d="M404.106,142.974V66.71h12.201v76.263h-12.201Z" fill="#33540c"/>
      <path d="M438.316,122.819v8.498c0,.326,.218,.435,.437,.435h18.848v11.222h-21.136c-6.21,0-10.35-4.249-10.35-10.459v-30.614c0-6.21,4.14-10.35,10.35-10.35h14.38c6.21,0,10.35,4.249,10.35,10.131v21.136h-22.879Zm10.677-20.046c0-.218-.218-.437-.435-.437h-9.805c-.218,0-.437,.218-.437,.437v10.785h10.677v-10.785Z" fill="#33540c"/>
    </g>
    <g>
      <path d="M52.509,144.801h0c-.534,3.142,1.724,4.352,4.716,5.064l14.102,2.866,14.103,2.866c3.098,.523,5.694,.269,6.363-3.026l1.382-6.8c-.249,.067-.499,.127-.753,.178-1.411,.286-2.863,.315-4.397,.163-1.308-.13-2.562-.4-3.763-.821-.913-.32-1.795-.725-2.646-1.221l-.564,.184c-4.059,1.317-5.425,1.761-10.911,1.783-5.337,.021-11.848-.644-17.403-1.211l-.052-.006-.178-.018h0Zm55.634-60h0c-7.428-7.297-24.155-7.346-34.066-7.345,1.014-2.452,2.147-4.635,3.201-6.663,4.008-7.715,6.976-13.432,.279-23.577,2.287-2.199,5.229-3.572,8.393-3.907,.115-4.48,1.137-11.906,3.303-15.738,4.385-7.761,5.089-7.923,5.941-11.532,.419-1.775,.873-4.383,1.818-9.137,.144-.724,.299-1.498,.467-2.325l-.517-.105-.637-.129,.478-2.35c.046-.229,.118-.444,.211-.643,.432-.927,1.318-1.493,2.189-1.317l5.504,1.118,2.541,.516,2.499,.508,.465,.094c.871,.177,1.465,1.044,1.502,2.066,.008,.219-.01,.446-.057,.674l-.478,2.351-.637-.13-.517-.105c-.168,.827-.327,1.601-.477,2.323-.985,4.747-1.585,7.325-1.892,9.122-.625,3.655-.04,4.079,.969,12.936,.498,4.373-1.46,11.609-3.102,15.779,5.032,2.791,8.071,8.42,7.246,14.746l-4.627,22.768Z" fill="#33540c" fill-rule="evenodd"/>
      <path d="M27.945,101.805h0v-.892h-3.741v39.461h3.741v-38.569h0Zm-7.915-3.084h0v-1.488H0v46.642H20.03v-45.154Z" fill="#33540c" fill-rule="evenodd"/>
      <path d="M68.965,81.139c-.265-.004-.531-.006-.799-.006,1.929-6.018,5.063-10.109,6.842-14.687,.158-.407,.306-.818,.441-1.234,.687-2.119,1.05-4.381,.851-7.01-.278-3.688-5.846-15.658-11.31-12.046-.276,.182-.486,.406-.646,.664-.947,1.535-.114,4.311-.506,7.055-.061,.425-.151,.849-.282,1.267-.79,2.53-1.357,3.41-1.472,6.042-1.054,.434-1.356,.778-1.356,2.092-2.105,1.203-3.521,5.536-7.94,9.567-9.363,8.541-8.347,27.68-20.679,28.899v37.739h13.304c9.075,.546,23.938,3.032,32.01,1.302l4.107-1.314,.735-.235c4.518,3.297,14.761,3.761,15.92-3.254,.175-1.061,.018-2.018-.292-2.892-.532-1.5-1.512-2.759-2.032-3.886,4.772-.212,10.187-4.203,8.673-9.591-.023-.082-.048-.165-.074-.248-.447-1.407-1.802-2.693-2.828-3.718,6.028-2.74,6.918-7.506,4.177-11.985-.858-1.402-2.072-2.776-3.595-4.051,3.293-1.829,5.09-4.386,3.757-8.405-3.49-10.528-27.71-9.916-37.006-10.065h0Z" fill="#89cb43" fill-rule="evenodd"/>
    </g>
  </g>
</svg>